<svg width="294" height="90" viewBox="0 0 294 90" fill="none" xmlns="http://www.w3.org/2000/svg">
<path d="M44.7763 89.0717C68.0134 88.8693 86.8937 70.7862 88.5043 48.0003L64.7098 38.4042C62.7128 39.7956 60.293 40.6217 57.6821 40.6444C57.4481 40.6465 57.215 40.6405 56.9839 40.6295L46.5734 56.0038C46.574 56.0768 46.5756 56.1478 46.5763 56.2197C46.6564 65.4184 39.2389 72.9673 30.0392 73.0474C20.8405 73.1275 13.2927 65.709 13.2125 56.5103C13.1324 47.3117 20.55 39.7618 29.7486 39.6817C29.8756 39.6806 30.0016 39.6825 30.1276 39.6844L45.0716 28.8238C45.0619 28.6289 45.0532 28.43 45.0515 28.232C44.9913 21.3262 50.5592 15.6615 57.4639 15.6014C63.5247 15.5486 68.6302 19.8303 69.828 25.5491L86.8445 32.4112C81.4329 13.8896 64.256 0.42566 44.0058 0.602025C19.5747 0.814803 -0.057028 20.7925 0.155724 45.2206C0.36851 69.6527 20.3462 89.2844 44.7763 89.0717Z" fill="#C5C3C0"/>
<path d="M60.5539 21.8097L66.0073 24.0073C65.0269 22.0107 63.3463 20.3463 61.1264 19.4436C56.3272 17.4933 50.8342 19.8103 48.8829 24.6134C47.9381 26.9357 47.9544 29.4907 48.9315 31.8023C49.9067 34.1149 51.7244 35.9091 54.0497 36.8549C56.357 37.7918 58.8196 37.7354 60.9764 36.8996L55.3434 34.6275C51.8037 33.1883 50.1005 29.153 51.5397 25.6133C52.9759 22.0727 57.0143 20.3695 60.5539 21.8097Z" fill="#C5C3C0"/>
<path d="M18.7795 56.4618C18.8328 62.5906 23.8621 67.534 29.9918 67.4806C36.1206 67.4272 41.064 62.397 41.0106 56.2682C40.9572 50.1384 35.927 45.1971 29.7982 45.2504C23.6685 45.3048 18.7261 50.3331 18.7795 56.4618ZM38.2269 56.3115C38.267 60.9233 34.5607 64.6937 29.9489 64.7339C25.3371 64.774 21.5657 61.0687 21.5255 56.4569C21.4853 51.8451 25.1917 48.0747 29.8035 48.0345C34.4153 47.9943 38.1867 51.7006 38.2269 56.3115Z" fill="#C5C3C0"/>
<path d="M135.718 30.868L132.754 36.078C130.471 34.483 127.377 33.523 124.676 33.523C121.589 33.523 119.679 34.801 119.679 37.09C119.679 39.871 123.072 40.518 128.115 42.328C133.536 44.245 136.652 46.498 136.652 51.463C136.652 58.256 131.31 62.071 123.632 62.071C119.89 62.071 115.376 61.105 111.906 58.994L114.068 53.218C116.887 54.707 120.259 55.59 123.265 55.59C127.317 55.59 129.243 54.095 129.243 51.885C129.243 49.356 126.306 48.596 121.565 47.026C116.162 45.222 112.418 42.855 112.418 37.36C112.418 31.163 117.381 27.604 124.522 27.604C129.499 27.604 133.499 29.181 135.718 30.868Z" fill="#C5C3C0"/>
<path d="M158.888 34.1608V61.4998H151.909V34.1608H141.779V28.1748H168.988V34.1608H158.888Z" fill="#C5C3C0"/>
<path d="M183.7 34.1428V41.6518H197.056V47.6378H183.7V55.4588H199.196V61.4998H176.723V28.1748H199.196V34.1428H183.7Z" fill="#C5C3C0"/>
<path d="M215.977 33.9678V41.4768H229.333V47.4628H215.977V55.2838H231.473V61.3248H209V27.9998H231.473V33.9678H215.977Z" fill="#C5C3C0"/>
<path d="M273.436 41.0558L264.316 60.5288H260.378L251.406 41.2298V61.4998H244.723V28.1748H251.391L262.591 52.2308L273.393 28.1748H280.119V61.4998H273.437L273.436 41.0558Z" fill="#C5C3C0"/>
<path d="M293.611 32.3789C293.611 35.2429 291.465 37.0279 289.002 37.0279C286.53 37.0279 284.379 35.2429 284.379 32.3789C284.379 29.5159 286.53 27.7429 289.002 27.7429C291.466 27.7429 293.611 29.5159 293.611 32.3789ZM285.154 32.3789C285.154 34.7749 286.88 36.2799 289.002 36.2799C291.116 36.2799 292.835 34.7749 292.835 32.3789C292.835 29.9759 291.116 28.4939 289.002 28.4939C286.886 28.4939 285.154 29.9939 285.154 32.3789ZM289.066 30.0099C290.261 30.0099 290.663 30.6419 290.663 31.3249C290.663 31.9509 290.292 32.3709 289.84 32.5849L290.911 34.5919H290.034L289.131 32.8129H288.2V34.5919H287.47V30.0099H289.066ZM288.207 32.1419H289.021C289.548 32.1419 289.859 31.8109 289.859 31.3949C289.859 30.9749 289.636 30.7049 289.019 30.7049H288.206V32.1419H288.207Z" fill="#C5C3C0"/>
</svg>
